<?xml version="1.0" encoding="UTF-8" standalone="no"?>
<svg width="15px" height="15px" viewBox="0 0 15 15" version="1.1" xmlns="http://www.w3.org/2000/svg" xmlns:xlink="http://www.w3.org/1999/xlink" xmlns:sketch="http://www.bohemiancoding.com/sketch/ns">
    <!-- Generator: Sketch 3.3.2 (12043) - http://www.bohemiancoding.com/sketch -->
    <title>Imported Layers</title>
    <desc>Created with Sketch.</desc>
    <defs></defs>
    <g id="Website-main" stroke="none" stroke-width="1" fill="none" fill-rule="evenodd" sketch:type="MSPage">
        <g id="Home" sketch:type="MSArtboardGroup" transform="translate(-1320.000000, -26.000000)" fill="#000000">
            <g id="header" sketch:type="MSLayerGroup" transform="translate(-7.000000, 6.000000)">
                <g id="menu-+-Imported-Layers-+-SEARCH" transform="translate(105.000000, 19.000000)" sketch:type="MSShapeGroup">
                    <g id="menu">
                        <g id="Cart-2" transform="translate(1222.174644, 0.381818)">
                            <path d="M13.6863535,15.5392474 L13.6820462,15.5392474 L0.49430809,15.5392474 C0.378873027,15.5392474 0.268319546,15.4989195 0.188204166,15.427608 C0.107801635,15.3565425 0.0650160017,15.2603949 0.0693232802,15.1612966 L0.494595242,5.325231 C0.503209799,5.12949329 0.691007141,4.97457526 0.919867204,4.97457526 L13.2567742,4.97457526 C13.4856343,4.97457526 13.6734316,5.12949329 13.681759,5.325231 L14.1050209,15.1096572 C14.1093282,15.1308048 14.1116254,15.1524441 14.1116254,15.1745753 C14.1119126,15.3759687 13.9215309,15.5392474 13.6863535,15.5392474 L13.6863535,15.5392474 Z M0.935947711,14.8106408 L13.2406937,14.8106408 L12.8467213,5.70318182 L1.32963296,5.70318182 L0.935947711,14.8106408 L0.935947711,14.8106408 Z M3.68485284,7.16039493 C3.44996258,7.16039493 3.25958088,7.32342772 3.25958088,7.52457526 C3.25958088,7.7259687 3.44996258,7.88900149 3.68485284,7.88900149 C3.92003024,7.88900149 4.11041195,7.7259687 4.11041195,7.52457526 C4.11041195,7.32342772 3.92003024,7.16039493 3.68485284,7.16039493 L3.68485284,7.16039493 Z M10.4915014,7.16039493 C10.2566112,7.16039493 10.0662295,7.32342772 10.0662295,7.52457526 C10.0662295,7.7259687 10.2566112,7.88900149 10.4915014,7.88900149 C10.7266788,7.88900149 10.9170606,7.7259687 10.9170606,7.52457526 C10.9170606,7.32342772 10.7266788,7.16039493 10.4915014,7.16039493 L10.4915014,7.16039493 Z M10.9170606,3.89678838 C10.9170606,2.08916542 9.1993179,0.618181818 7.08817714,0.618181818 C4.97703638,0.618181818 3.25958088,2.08916542 3.25958088,3.89678838 C3.25958088,4.09793592 3.45024974,4.26121461 3.68485284,4.26121461 C3.91974309,4.26121461 4.11041195,4.09793592 4.11041195,3.89678838 C4.11041195,2.4907228 5.44624258,1.34678838 7.08817714,1.34678838 C8.73039885,1.34678838 10.0662295,2.4907228 10.0662295,3.89678838 C10.0662295,4.09793592 10.2566112,4.26121461 10.4915014,4.26121461 C10.7263917,4.26121461 10.9170606,4.09793592 10.9170606,3.89678838 L10.9170606,3.89678838 Z" id="Imported-Layers"></path>
                        </g>
                    </g>
                </g>
            </g>
        </g>
    </g>
</svg>